<svg xmlns:xlink="http://www.w3.org/1999/xlink" xmlns="http://www.w3.org/2000/svg" width="90" height="29" viewBox="0 0 90 29" fill="none">
<path d="M16.4434 17.7207C16.4434 16.6161 17.3388 15.7207 18.4434 15.7207H27.4138C28.5183 15.7207 29.4137 16.6161 29.4137 17.7207V26.8612C29.4137 27.9657 28.5183 28.8612 27.4137 28.8612H18.4434C17.3388 28.8612 16.4434 27.9657 16.4434 26.8612V17.7207Z" fill="#ADD42D"/>
<path fill-rule="evenodd" clip-rule="evenodd" d="M27.8316 19.3303C27.8316 18.2257 26.9362 17.3303 25.8316 17.3303H20.0255C18.9209 17.3303 18.0255 18.2257 18.0255 19.3303V25.2517C18.0255 26.3563 18.9209 27.2517 20.0255 27.2517H25.8316C26.9362 27.2517 27.8316 26.3563 27.8316 25.2517V19.3303ZM18.0255 15.7207C17.1517 15.7207 16.4434 16.4291 16.4434 17.3029V17.3303V27.2517V27.279C16.4434 28.1528 17.1517 28.8612 18.0255 28.8612H27.8316C28.7054 28.8612 29.4137 28.1528 29.4137 27.279V27.2517V17.3303V17.3029C29.4137 16.4291 28.7054 15.7207 27.8316 15.7207H18.0255Z" fill="#ADD42D"/>
<path fill-rule="evenodd" clip-rule="evenodd" d="M11.7595 19.2073C11.7595 18.655 11.3118 18.2073 10.7595 18.2073H4.8875C4.33522 18.2073 3.8875 18.655 3.8875 19.2073V25.0551C3.8875 25.6074 4.33522 26.0551 4.8875 26.0551H10.7595C11.3118 26.0551 11.7595 25.6074 11.7595 25.0551V19.2073ZM3.8875 15.2627H2.95508C1.85051 15.2627 0.955078 16.1581 0.955078 17.2627V18.2073V26.0551V26.9995C0.955078 28.1041 1.85051 28.9995 2.95508 28.9995H3.8875H11.7595H12.6919C13.7965 28.9995 14.6919 28.1041 14.6919 26.9995V26.0551V18.2073V17.2627C14.6919 16.1581 13.7965 15.2627 12.6919 15.2627H11.7595H3.8875Z" fill="#2D3ED4"/>
<path d="M1.08398 2.15723C1.08398 1.05266 1.97941 0.157227 3.08398 0.157227H12.0543C13.1589 0.157227 14.0543 1.05266 14.0543 2.15723V11.2978C14.0543 12.4024 13.1589 13.2978 12.0543 13.2978H3.08398C1.97941 13.2978 1.08398 12.4024 1.08398 11.2978V2.15723Z" fill="#D42D2D"/>
<path fill-rule="evenodd" clip-rule="evenodd" d="M23.1154 2.94456H23.0589C20.9007 2.94456 19.1512 4.70134 19.1512 6.86842C19.1512 9.03553 20.9007 10.7923 23.0589 10.7923H23.1154C25.2735 10.7923 27.0231 9.03553 27.0231 6.86842C27.0231 4.70134 25.2735 2.94456 23.1154 2.94456ZM23.0589 0C19.2812 0 16.2188 3.07509 16.2188 6.86842C16.2188 10.6618 19.2812 13.7368 23.0589 13.7368H23.1154C26.8931 13.7368 29.9556 10.6618 29.9556 6.86842C29.9556 3.07509 26.8931 0 23.1154 0H23.0589Z" fill="white"/>
<path d="M53.7159 24.112L49.9479 17.68H45.9879V24.112H43.7559V7.312H50.4759C51.9159 7.312 53.1479 7.824 54.1719 8.848C55.1959 9.856 55.7079 11.08 55.7079 12.52C55.7079 13.608 55.3799 14.6 54.7239 15.496C54.0839 16.392 53.2519 17.024 52.2279 17.392L56.1879 24.112H53.7159ZM45.9879 9.4V15.664H50.4759C51.3079 15.664 52.0119 15.36 52.5879 14.752C53.1799 14.128 53.4759 13.384 53.4759 12.52C53.4759 11.656 53.1799 10.92 52.5879 10.312C52.0119 9.704 51.3079 9.4 50.4759 9.4H45.9879Z" fill="white"/>
<path d="M74.5574 15.784V16.792C74.5574 18.984 73.8054 20.808 72.3014 22.264C70.7974 23.704 68.8054 24.424 66.3254 24.424C63.7654 24.424 61.6454 23.584 59.9654 21.904C58.3014 20.208 57.4694 18.144 57.4694 15.712C57.4694 13.28 58.3014 11.224 59.9654 9.544C61.6454 7.848 63.7494 7 66.2774 7C67.8294 7 69.2534 7.376 70.5494 8.128C71.8454 8.864 72.8454 9.84 73.5494 11.056L71.6294 12.184C71.1494 11.272 70.4214 10.544 69.4454 10C68.4854 9.44 67.4214 9.16 66.2534 9.16C64.3334 9.16 62.7574 9.792 61.5254 11.056C60.2934 12.304 59.6774 13.856 59.6774 15.712C59.6774 17.568 60.2934 19.12 61.5254 20.368C62.7734 21.616 64.3814 22.24 66.3494 22.24C68.0294 22.24 69.3894 21.832 70.4294 21.016C71.4694 20.184 72.1014 19.112 72.3254 17.8H66.1574V15.784H74.5574Z" fill="white"/>
<path d="M86.8715 15.4C87.6395 15.768 88.2475 16.296 88.6955 16.984C89.1595 17.672 89.3915 18.464 89.3915 19.36C89.3915 20.704 88.9195 21.832 87.9755 22.744C87.0315 23.656 85.8795 24.112 84.5195 24.112H77.2715V7.312H83.9915C85.3035 7.312 86.4155 7.752 87.3275 8.632C88.2395 9.512 88.6955 10.6 88.6955 11.896C88.6955 13.384 88.0875 14.552 86.8715 15.4ZM83.9915 9.4H79.5035V14.536H83.9915C84.6955 14.536 85.2875 14.288 85.7675 13.792C86.2475 13.296 86.4875 12.688 86.4875 11.968C86.4875 11.264 86.2395 10.664 85.7435 10.168C85.2635 9.656 84.6795 9.4 83.9915 9.4ZM84.5195 22.024C85.2715 22.024 85.9035 21.76 86.4155 21.232C86.9275 20.704 87.1835 20.056 87.1835 19.288C87.1835 18.536 86.9195 17.896 86.3915 17.368C85.8795 16.84 85.2555 16.576 84.5195 16.576H79.5035V22.024H84.5195Z" fill="white"/>
</svg>