<svg width="21" height="16" viewBox="0 0 21 16" fill="none" xmlns="http://www.w3.org/2000/svg">
<path d="M20.3029 1.96562e-09L0.697094 0C0.512233 0.000213194 0.33501 0.0725863 0.204319 0.201236C0.073628 0.329885 0.000147134 0.5043 2.78152e-06 0.686202L2.78138e-06 2.06665C2.78138e-06 2.13026 0.0700937 2.20325 0.127366 2.23277L10.4326 8.02482C10.459 8.03967 10.489 8.04735 10.5194 8.0471C10.5504 8.04718 10.581 8.03903 10.6077 8.02348L20.6015 2.23841C20.6577 2.20754 20.8066 2.12596 20.8625 2.08839C20.9302 2.04304 21 2.00198 21 1.92067L21 0.685933C20.9998 0.504078 20.9263 0.329732 20.7956 0.201141C20.6649 0.0725496 20.4877 0.000213072 20.3029 1.96562e-09ZM20.913 4.14807C20.8862 4.13301 20.8558 4.12519 20.8249 4.12537C20.794 4.12556 20.7637 4.13376 20.7371 4.14914L15.0815 7.42343C15.059 7.43635 15.0397 7.4541 15.0251 7.47536C15.0105 7.49661 15.0009 7.52084 14.9971 7.54623C14.9933 7.57162 14.9954 7.59753 15.0032 7.62203C15.0109 7.64653 15.0242 7.669 15.042 7.68776L20.6984 13.6875C20.7146 13.7049 20.7343 13.7187 20.7562 13.7281C20.7781 13.7375 20.8018 13.7423 20.8257 13.7423C20.8719 13.7422 20.9162 13.7241 20.9489 13.692C20.9815 13.6598 20.9999 13.6162 21 13.5708L21 4.29701C21.0001 4.26684 20.9921 4.23718 20.9769 4.21103C20.9616 4.18487 20.9396 4.16315 20.913 4.14807ZM13.4517 8.5229C13.4249 8.49413 13.3888 8.47529 13.3496 8.46953C13.3103 8.46377 13.2702 8.47143 13.236 8.49124L10.9691 9.80379C10.8363 9.87931 10.6858 9.91953 10.5324 9.92052C10.379 9.92151 10.228 9.88323 10.0942 9.80943L8.09918 8.68795C8.06698 8.6699 8.02977 8.6624 7.99294 8.66655C7.95612 8.6707 7.92159 8.68628 7.89437 8.71103L0.318548 15.6256C0.298688 15.6439 0.283439 15.6665 0.274017 15.6916C0.264595 15.7167 0.261262 15.7436 0.264281 15.7702C0.267301 15.7968 0.276591 15.8223 0.291411 15.8447C0.30623 15.8671 0.326169 15.8859 0.349639 15.8994C0.467457 15.9675 0.581185 16 0.696821 16L20.1022 16C20.1361 16.0001 20.1694 15.9903 20.1977 15.9719C20.2261 15.9536 20.2484 15.9274 20.2617 15.8967C20.2753 15.8661 20.2795 15.8323 20.2738 15.7995C20.2681 15.7666 20.2527 15.7361 20.2295 15.7118L13.4517 8.5229ZM6.22746 7.89306C6.24752 7.8748 6.26294 7.85216 6.27248 7.82696C6.28201 7.80176 6.28539 7.77471 6.28233 7.74799C6.27928 7.72127 6.26988 7.69562 6.2549 7.67314C6.23992 7.65065 6.21978 7.63194 6.19609 7.61852L0.259912 4.28225C0.23342 4.26745 0.203443 4.25975 0.172979 4.25993C0.142515 4.26011 0.112632 4.26815 0.0863191 4.28325C0.0600057 4.29836 0.038184 4.32 0.0230364 4.34601C0.00788873 4.37202 -5.38615e-05 4.40148 2.78115e-06 4.43146L2.78027e-06 13.1854C-0.00018943 13.2189 0.00958604 13.2516 0.0281191 13.2796C0.0466521 13.3077 0.0731292 13.3297 0.104273 13.3431C0.135417 13.3564 0.169861 13.3605 0.203341 13.3548C0.236821 13.3491 0.267868 13.3339 0.292639 13.311L6.22746 7.89306Z" fill="white"/>
</svg>
